# xmcd
#
# Track frame offsets:
# 150
# 58048
# 94090
# 133570
# 154823
# 191305
# 221125
# 281578
#
# Disc length: 4849 seconds
#
# Revision: 0
# Processed by: cddbd v1.5PL3 Copyright (c) Steve Scherf et al.
# Submitted via: Audion 3.0.2 (http://www.panic.com/audion/)
#
DISCID=7112ef08
DTITLE=Stan Getz - Live At Montmartre
DYEAR=1900
DGENRE=
TTITLE0=Morning Star
TTITLE1=Lady Sings The Blues
TTITLE2=Cancao Do Sol
TTITLE3=Lush Life
TTITLE4=Stan's Blues
TTITLE5=Infant Eyes
TTITLE6=Lester Left Town
TTITLE7=Con Alma
EXTD=
EXTT0=
EXTT1=
EXTT2=
EXTT3=
EXTT4=
EXTT5=
EXTT6=
EXTT7=
PLAYORDER=
